<svg id="Group_54" data-name="Group 54" xmlns="http://www.w3.org/2000/svg" width="82" height="82" viewBox="0 0 82 82">
  <path id="_414-youtube" data-name="414-youtube" d="M43.179,8.991s-.425-3.007-1.737-4.327a6.245,6.245,0,0,0-4.37-1.848c-6.1-.444-15.259-.444-15.259-.444H21.8s-9.158,0-15.259.444a6.253,6.253,0,0,0-4.37,1.848C.856,5.984.438,8.991.438,8.991A66.355,66.355,0,0,0,0,16.055v3.307a66.558,66.558,0,0,0,.433,7.064s.425,3.007,1.728,4.329c1.66,1.737,3.841,1.679,4.815,1.865,3.492.333,14.834.433,14.834.433s9.169-.016,15.267-.453a6.241,6.241,0,0,0,4.37-1.848c1.311-1.32,1.737-4.329,1.737-4.329a66.353,66.353,0,0,0,.433-7.064V16.053a67.857,67.857,0,0,0-.442-7.064ZM17.3,23.373V11.113l11.783,6.151Z" transform="translate(19.861 23.357)" fill="#00a6d1"/>
  <g id="Ellipse_28" data-name="Ellipse 28" transform="translate(0)" fill="none" stroke="#00a6d1" stroke-width="3">
    <circle cx="41" cy="41" r="41" stroke="none"/>
    <circle cx="41" cy="41" r="39.5" fill="none"/>
  </g>
</svg>
