<svg id="Group_53" data-name="Group 53" xmlns="http://www.w3.org/2000/svg" width="82" height="82" viewBox="0 0 82 82">
  <path id="_403-instagram" data-name="403-instagram" d="M37.156,0H3.844A3.855,3.855,0,0,0,0,3.844V37.156A3.855,3.855,0,0,0,3.844,41H37.156A3.855,3.855,0,0,0,41,37.156V3.844A3.855,3.855,0,0,0,37.156,0ZM28.188,6.406a1.285,1.285,0,0,1,1.281-1.281h5.125a1.285,1.285,0,0,1,1.281,1.281v5.125a1.285,1.285,0,0,1-1.281,1.281H29.469a1.285,1.285,0,0,1-1.281-1.281ZM20.5,12.813A7.688,7.688,0,1,1,12.813,20.5,7.69,7.69,0,0,1,20.5,12.813ZM35.875,34.594h0a1.285,1.285,0,0,1-1.281,1.281H6.406a1.285,1.285,0,0,1-1.281-1.281h0V17.938H7.944a12.813,12.813,0,1,0,25.113,0h2.819Z" transform="translate(20.5 20.5)" fill="#00a6d1"/>
  <g id="Path_71" data-name="Path 71" fill="none">
    <path d="M41,0A41,41,0,1,1,0,41,41,41,0,0,1,41,0Z" stroke="none"/>
    <path d="M 41 3 C 35.86870574951172 3 30.89250564575195 4.004295349121094 26.20959854125977 5.985000610351563 C 21.6849479675293 7.898757934570313 17.62075805664063 10.63912200927734 14.12994384765625 14.12994384765625 C 10.63912200927734 17.62075805664063 7.898757934570313 21.6849479675293 5.985000610351563 26.20959854125977 C 4.004295349121094 30.89250564575195 3 35.86870574951172 3 41 C 3 46.13129425048828 4.004295349121094 51.10749053955078 5.985000610351563 55.79039764404297 C 7.898757934570313 60.31505584716797 10.63912200927734 64.37924194335938 14.12994384765625 67.87005615234375 C 17.62075805664063 71.36087799072266 21.6849479675293 74.10124206542969 26.20959854125977 76.01499938964844 C 30.89250564575195 77.99570465087891 35.86870574951172 79 41 79 C 46.13129425048828 79 51.10749053955078 77.99570465087891 55.79039764404297 76.01499938964844 C 60.31505584716797 74.10124206542969 64.37924194335938 71.36087799072266 67.87005615234375 67.87005615234375 C 71.36087799072266 64.37924194335938 74.10124206542969 60.31505584716797 76.01499938964844 55.79039764404297 C 77.99570465087891 51.10749053955078 79 46.13129425048828 79 41 C 79 35.86870574951172 77.99570465087891 30.89250564575195 76.01499938964844 26.20959854125977 C 74.10124206542969 21.6849479675293 71.36087799072266 17.62075805664063 67.87005615234375 14.12994384765625 C 64.37924194335938 10.63912200927734 60.31505584716797 7.898757934570313 55.79039764404297 5.985000610351563 C 51.10749053955078 4.004295349121094 46.13129425048828 3 41 3 M 41 0 C 63.64368057250977 0 82 18.35631942749023 82 41 C 82 63.64368057250977 63.64368057250977 82 41 82 C 18.35631942749023 82 0 63.64368057250977 0 41 C 0 18.35631942749023 18.35631942749023 0 41 0 Z" stroke="none" fill="#00a6d1"/>
  </g>
</svg>
