<svg id="Group_52" data-name="Group 52" xmlns="http://www.w3.org/2000/svg" width="82" height="82" viewBox="0 0 82 82">
  <path id="_407-twitter" data-name="407-twitter" d="M41,5.939a16.553,16.553,0,0,1-4.827,1.322,8.458,8.458,0,0,0,3.7-4.652A16.926,16.926,0,0,1,34.53,4.65,8.421,8.421,0,0,0,20.2,12.32,23.88,23.88,0,0,1,2.865,3.53a8.419,8.419,0,0,0,2.6,11.224,8.457,8.457,0,0,1-3.812-1.048v.105A8.409,8.409,0,0,0,8.4,22.058a8.431,8.431,0,0,1-2.219.3A8.779,8.779,0,0,1,4.6,22.2a8.435,8.435,0,0,0,7.855,5.844A16.872,16.872,0,0,1,2,31.649,16.811,16.811,0,0,1,0,31.529a23.791,23.791,0,0,0,12.9,3.779c15.466,0,23.93-12.817,23.93-23.93,0-.369-.008-.728-.023-1.089a16.881,16.881,0,0,0,4.194-4.347Z" transform="translate(22.958 22.599)" fill="#00a6d1"/>
  <g id="Path_70" data-name="Path 70" transform="translate(0)" fill="none">
    <path d="M41,0A41,41,0,1,1,0,41,41,41,0,0,1,41,0Z" stroke="none"/>
    <path d="M 41 3 C 35.86870574951172 3 30.89250564575195 4.004295349121094 26.20959854125977 5.985000610351563 C 21.6849479675293 7.898757934570313 17.62075805664063 10.63912200927734 14.12994384765625 14.12994384765625 C 10.63912200927734 17.62075805664063 7.898757934570313 21.6849479675293 5.985000610351563 26.20959854125977 C 4.004295349121094 30.89250564575195 3 35.86870574951172 3 41 C 3 46.13129425048828 4.004295349121094 51.10749053955078 5.985000610351563 55.79039764404297 C 7.898757934570313 60.31505584716797 10.63912200927734 64.37924194335938 14.12994384765625 67.87005615234375 C 17.62075805664063 71.36087799072266 21.6849479675293 74.10124206542969 26.20959854125977 76.01499938964844 C 30.89250564575195 77.99570465087891 35.86870574951172 79 41 79 C 46.13129425048828 79 51.10749053955078 77.99570465087891 55.79039764404297 76.01499938964844 C 60.31505584716797 74.10124206542969 64.37924194335938 71.36087799072266 67.87005615234375 67.87005615234375 C 71.36087799072266 64.37924194335938 74.10124206542969 60.31505584716797 76.01499938964844 55.79039764404297 C 77.99570465087891 51.10749053955078 79 46.13129425048828 79 41 C 79 35.86870574951172 77.99570465087891 30.89250564575195 76.01499938964844 26.20959854125977 C 74.10124206542969 21.6849479675293 71.36087799072266 17.62075805664063 67.87005615234375 14.12994384765625 C 64.37924194335938 10.63912200927734 60.31505584716797 7.898757934570313 55.79039764404297 5.985000610351563 C 51.10749053955078 4.004295349121094 46.13129425048828 3 41 3 M 41 0 C 63.64368057250977 0 82 18.35631942749023 82 41 C 82 63.64368057250977 63.64368057250977 82 41 82 C 18.35631942749023 82 0 63.64368057250977 0 41 C 0 18.35631942749023 18.35631942749023 0 41 0 Z" stroke="none" fill="#00a6d1"/>
  </g>
</svg>
